<?xml version="1.0" encoding="UTF-8" standalone="no"?>
<!-- Created with Inkscape (http://www.inkscape.org/) -->

<svg
   xmlns:dc="http://purl.org/dc/elements/1.1/"
   xmlns:cc="http://creativecommons.org/ns#"
   xmlns:rdf="http://www.w3.org/1999/02/22-rdf-syntax-ns#"
   xmlns:svg="http://www.w3.org/2000/svg"
   xmlns="http://www.w3.org/2000/svg"
   version="1.1"
   width="2594.7209"
   height="588.3092"
   id="svg2">
  <title
     id="title4508">PHP Brasil</title>
  <defs
     id="defs4" />
  <metadata
     id="metadata7">
    <rdf:RDF>
      <cc:Work
         rdf:about="">
        <dc:format>image/svg+xml</dc:format>
        <dc:type
           rdf:resource="http://purl.org/dc/dcmitype/StillImage" />
        <dc:title>PHP Brasil</dc:title>
        <dc:creator>
          <cc:Agent>
            <dc:title>João Batista Neto</dc:title>
          </cc:Agent>
        </dc:creator>
        <dc:contributor>
          <cc:Agent>
            <dc:title>Henrique Moody</dc:title>
          </cc:Agent>
        </dc:contributor>
        <dc:description></dc:description>
        <cc:license
           rdf:resource="http://creativecommons.org/licenses/by-nc-sa/3.0/" />
        <dc:date>2014-08-01</dc:date>
        <dc:publisher>
          <cc:Agent>
            <dc:title>PHP Brasil</dc:title>
          </cc:Agent>
        </dc:publisher>
      </cc:Work>
      <cc:License
         rdf:about="http://creativecommons.org/licenses/by-nc-sa/3.0/">
        <cc:permits
           rdf:resource="http://creativecommons.org/ns#Reproduction" />
        <cc:permits
           rdf:resource="http://creativecommons.org/ns#Distribution" />
        <cc:requires
           rdf:resource="http://creativecommons.org/ns#Notice" />
        <cc:requires
           rdf:resource="http://creativecommons.org/ns#Attribution" />
        <cc:prohibits
           rdf:resource="http://creativecommons.org/ns#CommercialUse" />
        <cc:permits
           rdf:resource="http://creativecommons.org/ns#DerivativeWorks" />
        <cc:requires
           rdf:resource="http://creativecommons.org/ns#ShareAlike" />
      </cc:License>
    </rdf:RDF>
  </metadata>
  <g
     transform="translate(1507.2951,727.48576)"
     id="layer1">
    <g
       id="g4492">
      <path
         d="m -1180.665,-727.48527 c -168.0699,0.24841 -326.979,81.32383 -326.6295,251.65178 8.1962,437.620859 293.9629,137.39331 293.9629,137.39331 l -1.295,-86.13229 c 2.0136,24.1243 10.39,58.28949 9.5984,83.34886 112.5153,-63.018 229.95967,-129.22676 308.86342,-56.18131 90.3974,89.9909 142.2963,57.01134 181.6875,14.91964 79.8102,-85.2814 153.98629,-68.81962 223.25348,-15.59792 -199.04492,-235.1275 -521.3713,-329.65049 -689.4412,-329.40207 z"
         id="path4083-9"
         style="fill:#ededed;fill-opacity:1;stroke:none" />
      <path
         d="m -1380.0138,-570.7698 c -76.4309,0.85096 -69.1581,55.03617 -94.4375,107.6875 -11.0075,22.92592 -25.8427,51.02802 -25.0625,77.46875 1.2944,43.86427 20.592,97.88375 55.8438,136.90625 20.451,22.6385 34.8307,39.72265 50.4062,50.5625 164.2326,114.29864 191.6472,-16.84194 180.0625,-211.375 18.8552,190.11188 7.3124,267.89953 -106.0625,270.03125 283.229,0.7197 214.5525,-0.0312 276.5313,-0.0312 -1.992,-50.82989 90.10403,-81.8925 135.43753,-80.8125 111.72877,44.16289 148.27725,65.41995 286.46875,80.78125 -79.79897,-29.90583 -154.88706,-58.58661 -230.15625,-101.09375 70.3576,42.6095 144.07625,73.04725 221.34375,99.15625 -87.6211,-15.9341 -177.92488,-30.37906 -285.125,-97.21875 -39.3612,-27.6113 -11.94505,-58.87074 14.34375,-39.84375 127.83764,92.52478 218.24135,10.50625 270.59375,-66.1875 10.48493,-15.35991 45.63527,-60.25095 135.71875,-21.03125 -1.1692,-12.0131 -8.2966,-27.0322 2.875,-32.875 -71.84728,-58.13725 -141.40735,-72.6319 -224.03125,15.6562 -39.3913,42.0917 -91.29008,72.9284 -181.6875,-17.0625 -66.5857,-66.2862 -95.71041,-154.6157 -258.31258,-113.125 -95.5385,-26.57194 -123.7202,-52.56114 -212.8437,-57.3125 -4.1777,-0.22272 -8.1474,-0.3231 -11.9063,-0.28125 z"
         id="path4454"
         style="fill:#484537;fill-opacity:1;stroke:none" />
      <path
         d="m -1330.7325,-139.5198 c 3.8767,0.0898 7.6505,0.0978 11.3125,0.0312 -4.2585,-0.0108 -6.8926,-0.0198 -11.3125,-0.0312 z"
         id="path4206-7"
         style="fill:#484537;fill-opacity:1;stroke:none" />
      <path
         d="m -629.49002,-141.45939 c -80.57996,-9.33688 -200.21065,-39.92154 -286.83516,-97.72101 -39.76477,-26.53271 -7.34614,-59.54625 12.59408,-41.40845 73.02772,66.42662 204.22333,114.87042 274.24108,139.12946 z"
         id="path4212-9"
         style="fill:#ffffff;fill-opacity:1;stroke:none" />
    </g>
    <g
       transform="translate(140,-99.633475)"
       id="g4502"
       style="fill:#ededed;fill-opacity:1;stroke:none">
      <text
         x="-458.57999"
         y="-264.72797"
         id="text4488"
         xml:space="preserve"
         style="font-size:250.77412415px;font-style:normal;font-weight:normal;line-height:125%;letter-spacing:0px;word-spacing:0px;fill:#ededed;fill-opacity:1;stroke:none;font-family:Sans"><tspan
           x="-458.57999"
           y="-264.72797"
           id="tspan4490"
           style="font-size:250px;font-style:normal;font-variant:normal;font-weight:bold;font-stretch:normal;fill:#ededed;fill-opacity:1;stroke:none;font-family:Sans;-inkscape-font-specification:Sans Bold">PHP Brasil</tspan></text>
    </g>
  </g>
</svg>
